HIERARCHY
ROOT Hips
{
  OFFSET 0 89.5177 0.535
  CHANNELS 6 Xposition Yposition Zposition Zrotation Xrotation Yrotation
  JOINT Spine
  {
    OFFSET 12.0259 -0.162855 1.69034e-005
    CHANNELS 3 Zrotation Xrotation Yrotation
    JOINT Spine1
    {
      OFFSET 15.3169 -0.0121922 0
      CHANNELS 3 Zrotation Xrotation Yrotation
      JOINT Spine2
      {
        OFFSET 15.3176 -0.0121908 0
        CHANNELS 3 Zrotation Xrotation Yrotation
        JOINT Neck
        {
          OFFSET 19.9142 1.56338 0
          CHANNELS 3 Zrotation Xrotation Yrotation
          JOINT Head
          {
            OFFSET 6.92651 0 0
            CHANNELS 3 Zrotation Xrotation Yrotation
            End Site
            {
              OFFSET 20.7666 0 0
            }
          }
          JOINT LeftShoulder
          {
            OFFSET -6.20654 0.708824 7.28219
            CHANNELS 3 Zrotation Xrotation Yrotation
            JOINT LeftArm
            {
              OFFSET 14.108 0 -1.52588e-005
              CHANNELS 3 Zrotation Xrotation Yrotation
              JOINT LeftForeArm
              {
                OFFSET 28.5802 0 0
                CHANNELS 3 Zrotation Xrotation Yrotation
                JOINT LeftHand
                {
                  OFFSET 27.092 0 0
                  CHANNELS 3 Zrotation Xrotation Yrotation
                  End Site
                  {
                    OFFSET 9.55928 -0.186424 0.145352
                  }
                }
              }
            }
          }
          JOINT RightShoulder
          {
            OFFSET -6.20654 0.708866 -7.28218
            CHANNELS 3 Zrotation Xrotation Yrotation
            JOINT RightArm
            {
              OFFSET 14.108 0 1.52588e-005
              CHANNELS 3 Zrotation Xrotation Yrotation
              JOINT RightForeArm
              {
                OFFSET 28.5802 0 0
                CHANNELS 3 Zrotation Xrotation Yrotation
                JOINT RightHand
                {
                  OFFSET 27.092 0 0
                  CHANNELS 3 Zrotation Xrotation Yrotation
                  End Site
                  {
                    OFFSET 9.55929 -0.186417 -0.145354
                  }
                }
              }
            }
          }
        }
      }
    }
  }
  JOINT LeftUpLeg
  {
    OFFSET 0.005 -0.535 8.837
    CHANNELS 3 Zrotation Xrotation Yrotation
    JOINT LeftLeg
    {
      OFFSET 39.9035 0 0
      CHANNELS 3 Zrotation Xrotation Yrotation
      JOINT LeftFoot
      {
        OFFSET 39.6689 0 0
        CHANNELS 3 Zrotation Xrotation Yrotation
        JOINT LeftToe
        {
          OFFSET 10.1624 13.6296 0
          CHANNELS 3 Zrotation Xrotation Yrotation
          End Site
          {
            OFFSET 8.38147 0 0
          }
        }
      }
    }
  }
  JOINT RightUpLeg
  {
    OFFSET 0.005 -0.535 -8.837
    CHANNELS 3 Zrotation Xrotation Yrotation
    JOINT RightLeg
    {
      OFFSET 39.9035 0 0
      CHANNELS 3 Zrotation Xrotation Yrotation
      JOINT RightFoot
      {
        OFFSET 39.6689 0 0
        CHANNELS 3 Zrotation Xrotation Yrotation
        JOINT RightToe
        {
          OFFSET 10.1624 13.6296 0
          CHANNELS 3 Zrotation Xrotation Yrotation
          End Site
          {
            OFFSET 8.38147 0 0
          }
        }
      }
    }
  }
}
MOTION
Frames:	19
Frame Time:	0.0333333
390.756 88.4648 141.567 -80.0864 4.57775 -178.36 4.67842 -1.13425 -0.494762 9.34972 -2.30457 -0.895482 9.34972 -2.30457 -0.895491 -8.30862e-012 -9.0191e-006 -5.27751e-005 2.81601 -6.45566 11.9937 -179.812 -0.64046 -73.678 -1.94418 8.72653 60.7277 -50.725 9.54166e-015 -8.62228e-015 -57.4388 -43.241 -53.032 -177.778 7.91357 74.2645 -0.954115 5.55952 -59.8446 -89.1352 3.18055e-015 -3.18055e-015 -46.129 36.3114 43.1907 -6.33228 12.7733 -175.336 -21.8645 -1.59028e-015 7.95139e-016 6.70204 4.24698 -9.20331 90 7.95139e-016 -1.59028e-015 6.3026 -6.04864 -178.324 -19.914 -1.59028e-015 -1.59028e-015 18.3992 -3.63082 -2.52591 90 3.97569e-016 -2.38542e-015 
391.779 88.4123 141.104 -80.2749 5.45413 -177.896 4.65975 -1.1346 -0.647639 9.30924 -2.31752 -1.20118 9.30924 -2.31752 -1.20119 -8.30912e-012 -9.0191e-006 -5.27751e-005 2.9549 -6.34525 11.8234 -179.787 -0.726997 -73.6348 -1.75802 8.60112 60.6889 -50.7484 -6.36111e-015 4.74598e-015 -57.6836 -43.2117 -53.2868 -177.796 7.8525 74.2654 -1.19842 4.97749 -59.682 -88.9874 -3.18055e-015 -0 -46.0742 36.3045 43.0903 -7.09555 12.6752 -176.887 -19.9485 1.59028e-015 7.95139e-016 5.0108 6.21557 -11.567 90 3.18055e-015 -1.98785e-016 6.29362 -5.56935 -179.354 -20.6726 -1.59028e-015 -0 19.3627 -3.85321 -1.99182 90 3.97569e-016 -1.59028e-015 
392.889 88.3074 140.531 -80.1442 6.24823 -177.208 4.67966 -1.1452 -0.861433 9.34453 -2.35627 -1.62693 9.34453 -2.35627 -1.62693 -8.30842e-012 -9.0191e-006 -5.27751e-005 3.34826 -6.18118 11.6812 -179.776 -0.766444 -73.6931 -1.72392 8.53179 60.7573 -50.5861 -3.18055e-015 -9.93923e-016 -58.0654 -43.1764 -53.7006 -177.8 7.81775 74.2307 -1.14336 4.55767 -59.7356 -88.7605 -6.36111e-015 -0 -45.3311 36.4433 42.4605 -6.51473 10.9618 -178.902 -18.6009 7.95139e-016 -3.97569e-016 2.25093 6.47796 -11.9277 90 4.77083e-015 1.98785e-016 6.26598 -5.42062 179.199 -22.1246 0 -0 20.6159 -4.14603 -1.09644 90 -7.95139e-016 -1.59028e-015 
394.087 88.0866 139.997 -79.8001 7.06793 -176.874 4.7212 -1.09916 -1.01531 9.42497 -2.27753 -1.93713 9.42497 -2.27754 -1.93713 -8.30972e-012 -9.0191e-006 -5.27751e-005 3.91783 -6.04786 11.4012 -179.781 -0.752908 -73.7996 -1.85154 8.52513 60.8786 -50.3175 -3.18055e-015 -1.68967e-015 -58.1743 -43.1568 -53.8358 -177.83 7.69305 74.1988 -0.120773 4.21787 -60.0572 -88.8218 -3.18055e-015 -0 -44.4529 36.4799 41.554 -5.2654 9.87633 179.783 -18.9668 0 -5.96354e-016 3.18075 5.00217 -8.62684 90 2.38542e-015 3.97569e-016 6.3387 -5.07213 178.012 -23.9225 1.59028e-015 -7.95139e-016 21.7025 -4.35885 0.307416 90 -7.95139e-016 -4.77083e-015 
395.359 87.9295 139.452 -79.1534 8.07961 -176.529 4.83526 -0.993359 -1.19399 9.65117 -2.08315 -2.30042 9.65117 -2.08315 -2.30043 -8.30773e-012 -9.0191e-006 -5.27751e-005 4.36986 -5.8163 11.3399 -179.791 -0.719356 -73.8116 -2.20949 8.40394 60.7943 -49.9162 -6.36111e-015 -1.59028e-015 -58.1296 -43.1724 -53.7831 -177.87 7.50939 74.1177 1.71626 4.17937 -60.5937 -88.972 -3.18055e-015 -0 -44.6587 36.3584 41.6951 -4.20825 10.5928 179.096 -20.4353 0 -1.98785e-016 4.93688 5.10537 -7.90738 90 7.95139e-016 -0 6.24731 -5.54881 176.236 -26.344 0 7.95139e-016 22.5314 -5.26149 4.18153 90 0 -0 
396.613 87.8411 138.793 -78.896 8.90177 -176.434 4.86954 -0.955047 -1.28566 9.71869 -2.01508 -2.48604 9.71869 -2.01508 -2.48605 -8.30654e-012 -9.0191e-006 -5.27751e-005 4.87251 -5.36284 11.273 -179.745 -0.864892 -73.5889 -2.40271 8.19821 60.625 -49.558 3.18055e-015 -5.96354e-015 -58.4005 -43.1637 -54.0854 -177.889 7.38259 73.9966 3.53908 4.42691 -61.0324 -88.9065 0 3.18055e-015 -45.5178 35.9958 42.2567 -3.59449 11.5929 178.568 -21.7715 7.95139e-016 6.95746e-016 6.51891 5.1842 -7.47498 90 -7.95139e-016 -3.97569e-016 5.99519 -7.32794 174.368 -28.1246 -3.18056e-015 -7.95139e-016 23.8084 -7.04201 8.78854 90 3.18055e-015 -3.18055e-015 
397.776 87.8482 138.094 -78.6319 9.65257 -176.393 4.89865 -0.988044 -1.31924 9.77568 -2.08441 -2.54977 9.77568 -2.08441 -2.54978 -8.30733e-012 -9.0191e-006 -5.27751e-005 5.44891 -4.83311 10.9234 -179.709 -0.971448 -73.3209 -2.17945 8.08152 60.7392 -49.338 6.36111e-015 3.18055e-015 -58.6628 -43.1794 -54.4124 -177.916 7.33137 74.0834 4.99204 4.79327 -61.2487 -88.8068 3.18055e-015 -0 -46.1107 35.7934 42.6954 -2.10983 11.7573 177.596 -21.3997 -7.95139e-016 -8.69683e-017 7.26534 4.65567 -5.81227 90 -7.95139e-016 -3.97569e-016 3.24393 -9.64804 171.862 -33.7907 6.36111e-015 2.38542e-015 24.8301 -9.24561 13.8223 90 -1.59028e-015 -3.18055e-015 
398.793 87.9267 137.497 -78.2574 10.5567 -176.568 4.97448 -0.992083 -1.31636 9.92735 -2.09385 -2.54223 9.92735 -2.09385 -2.54224 -8.30698e-012 -9.0191e-006 -5.27751e-005 5.75792 -4.42751 10.6404 -179.712 -0.967887 -73.4049 -2.08387 8.15315 61.2065 -49.3308 3.18055e-015 5.1684e-015 -59.173 -43.241 -55.0739 -177.92 7.32602 74.101 6.06362 5.15371 -61.0075 -89.0563 3.18055e-015 -0 -46.7265 35.6131 43.2294 -0.518599 12.1223 176.964 -20.7516 -3.97569e-016 -4.96962e-017 7.77892 4.31467 -4.80589 90 -7.95139e-016 -0 -1.55166 -10.9871 169.031 -42.279 -3.18056e-015 -3.18056e-015 23.7364 -11.4445 17.9902 90 -3.18055e-015 3.18055e-015 
399.749 87.968 137.077 -77.9086 11.5424 -176.898 5.06127 -0.987142 -1.30152 10.1013 -2.08454 -2.51137 10.1013 -2.08454 -2.51138 -8.30768e-012 -9.0191e-006 -5.27751e-005 5.86739 -4.06007 10.5528 -179.747 -0.863721 -73.6601 -2.26581 8.54788 61.519 -49.621 -9.54166e-015 7.95139e-016 -59.7231 -43.521 -55.8651 -177.927 7.25722 74.0091 6.83096 5.48163 -60.575 -89.5378 -3.18055e-015 -9.54166e-015 -47.783 35.3061 44.0766 0.644277 13.0758 176.766 -20.7509 -1.98785e-016 -9.93923e-017 8.55971 4.28017 -4.40156 90 -1.59028e-015 -1.59028e-015 -6.01676 -11.3296 166.498 -49.2506 -6.36111e-015 -3.18056e-015 21.1357 -12.8359 21.6961 90 3.18055e-015 -0 
400.753 88.0271 136.835 -77.5381 12.0121 -177.115 5.14958 -1.098 -1.29721 10.2761 -2.30727 -2.49123 10.2761 -2.30727 -2.49124 -8.30788e-012 -9.0191e-006 -5.27751e-005 5.8846 -3.74513 10.5015 -179.765 -0.806582 -73.7667 -2.70596 9.12406 61.3129 -50.0553 -3.18055e-015 -0 -59.454 -43.7382 -55.6545 -177.898 7.29946 73.8853 7.11839 5.76916 -60.1875 -89.902 4.77083e-015 3.18055e-015 -48.7886 35.082 44.9131 1.79795 13.742 176.618 -20.7661 5.96354e-016 4.96962e-016 9.32697 4.43975 -4.51533 90 7.95139e-016 -7.95139e-016 -9.2484 -12.4652 164.179 -52.5582 0 -3.18056e-015 18.0605 -12.309 21.1192 90 -3.18055e-015 3.18055e-015 
401.74 88.1571 136.746 -77.2726 11.9859 -177.552 5.21384 -1.24813 -1.22967 10.4037 -2.60212 -2.34156 10.4037 -2.60212 -2.34157 -8.30818e-012 -9.0191e-006 -5.27751e-005 5.98607 -3.66389 10.4545 -179.808 -0.661329 -73.7997 -3.252 9.57799 60.7676 -50.1111 6.36111e-015 -0 -58.9221 -43.5688 -54.9072 -177.831 7.45924 73.739 7.42553 6.08953 -60.0486 -89.992 6.36111e-015 3.18055e-015 -49.3346 34.7122 45.164 3.19823 13.1655 176.577 -19.7961 -5.96354e-016 9.93923e-017 9.58142 4.16522 -3.85889 90 -1.59028e-015 -3.97569e-016 -11.1165 -14.3625 162.51 -51.8112 6.36111e-015 3.18056e-015 15.1937 -10.1441 17.0056 90 -6.36111e-015 3.18055e-015 
402.677 88.3047 136.806 -77.1584 12.2321 -178.051 5.2453 -1.31656 -1.14337 10.4677 -2.73144 -2.16233 10.4677 -2.73144 -2.16234 -8.31255e-012 -9.0191e-006 -5.27751e-005 6.06315 -3.65744 10.2847 -179.817 -0.629225 -73.7447 -3.56608 9.64834 60.2212 -49.9129 -3.18055e-015 3.18055e-015 -58.3709 -43.5499 -54.2803 -177.837 7.45425 73.7703 7.95881 6.24177 -60.1019 -90.0591 1.59028e-015 3.18055e-015 -49.7171 34.6096 45.4221 4.55696 13.1558 176.714 -18.6298 0 -9.93923e-017 9.73915 3.96716 -3.37557 90 1.59028e-015 7.95139e-016 -11.9263 -15.2767 161.514 -48.1558 9.54167e-015 -3.18056e-015 13.101 -8.23279 15.1173 90 0 -3.18055e-015 
403.548 88.3716 136.981 -77.2188 12.8736 -178.296 5.23098 -1.3136 -1.11477 10.4398 -2.72268 -2.10584 10.4398 -2.72268 -2.10585 -8.30688e-012 -9.0191e-006 -5.27751e-005 5.99573 -3.57262 10.0221 -179.804 -0.673396 -73.7695 -3.46835 9.46798 59.9121 -49.6696 3.18055e-015 3.18055e-015 -58.5967 -43.6396 -54.5957 -177.881 7.32855 73.8244 8.472 6.26551 -60.0492 -90.2602 3.18055e-015 -0 -50.1153 34.6259 45.8463 5.61519 13.72 176.777 -17.8362 0 1.98785e-016 10.0714 3.93947 -3.26573 90 -7.95139e-016 -7.95139e-016 -11.8475 -14.9963 161.124 -42.4135 0 -0 11.4109 -7.07675 14.6135 90 0 -6.36111e-015 
404.396 88.3712 137.294 -77.448 13.5251 -178.269 5.17822 -1.3151 -1.12899 10.3339 -2.72603 -2.1354 10.3339 -2.72603 -2.13541 -8.31344e-012 -9.0191e-006 -5.27751e-005 5.75767 -3.34232 9.63949 -179.794 -0.705952 -73.748 -2.9347 9.22791 59.6425 -49.7121 -3.18055e-015 4.77083e-015 -59.0506 -43.6518 -55.1448 -177.904 7.25537 73.8378 8.73463 6.4082 -59.8753 -90.4843 4.77083e-015 1.59028e-014 -50.3804 34.5894 46.0827 6.50133 14.1522 176.685 -17.094 -1.98785e-016 -9.93923e-017 10.4027 3.90031 -3.15788 90 -3.97569e-016 -0 -10.7386 -13.9981 161.277 -34.7103 -3.18056e-015 -2.98177e-015 10.2903 -6.62807 14.4684 90 3.18055e-015 -0 
405.242 88.3072 137.736 -77.8571 14.0677 -178.018 5.09075 -1.3147 -1.15906 10.1582 -2.72634 -2.19765 10.1582 -2.72635 -2.19766 -8.30748e-012 -9.0191e-006 -5.27751e-005 5.41986 -3.12239 9.16497 -179.764 -0.803544 -73.6558 -2.64832 8.97111 59.3566 -49.7638 3.18055e-015 -7.95139e-016 -59.7023 -43.7225 -55.9319 -177.888 7.31591 73.851 8.9522 6.79188 -59.6803 -90.7926 6.36111e-015 -0 -50.4167 34.6341 46.1307 7.16404 14.6253 176.524 -16.542 -1.98785e-016 -3.72721e-017 10.8289 3.9297 -3.08875 90 -3.97569e-016 -1.19271e-015 -8.74224 -12.4809 161.676 -25.5863 -3.18056e-015 1.59028e-015 10.463 -6.5947 14.3995 90 0 6.36111e-015 
406.089 88.1758 138.281 -78.487 14.4773 -177.381 4.95576 -1.29673 -1.23377 9.88656 -2.69446 -2.3517 9.88656 -2.69446 -2.35171 -8.30629e-012 -9.0191e-006 -5.27751e-005 5.0823 -2.98139 8.68012 -179.77 -0.77627 -73.5085 -2.11006 8.70358 59.1268 -50.0283 -3.18055e-015 -3.97569e-015 -59.0768 -43.5952 -55.1612 -177.849 7.48685 73.923 9.28762 7.246 -59.5074 -91.2286 0 3.18055e-015 -50.7145 34.5485 46.3474 7.7313 14.8465 176.074 -15.8632 -3.97569e-016 4.96962e-017 11.1694 3.87587 -2.90892 90 -7.95139e-016 -3.97569e-016 -9.44717 -9.71675 161.566 -22.0396 -3.18056e-015 7.95139e-016 12.6692 -6.65539 9.9252 90 3.97569e-016 -3.18055e-015 
406.942 87.9963 138.994 -79.0347 14.6765 -176.649 4.83639 -1.28153 -1.31639 9.64599 -2.6687 -2.5209 9.64599 -2.6687 -2.5209 -8.3045e-012 -9.0191e-006 -5.27751e-005 4.73723 -2.87548 8.16848 -179.757 -0.817276 -73.4429 -2.19833 8.59009 58.9693 -50.2154 0 -1.59028e-015 -59.8788 -43.4752 -55.9863 -177.869 7.49775 74.0868 9.99246 7.75898 -59.4228 -91.834 -1.59028e-015 3.18055e-015 -51.1796 34.5223 46.7944 8.12573 14.7351 175.769 -15.6272 0 1.98785e-016 11.714 3.91532 -3.09343 90 -7.95139e-016 3.97569e-016 -10.5402 -7.02792 160.57 -19.6797 9.54167e-015 -1.59028e-015 11.0435 -5.5382 11.004 90 3.97569e-016 -3.18055e-015 
407.784 87.8261 139.893 -79.2689 14.6781 -176.142 4.79796 -1.26202 -1.3665 9.56825 -2.63311 -2.62353 9.56825 -2.63311 -2.62354 -8.30688e-012 -9.0191e-006 -5.27751e-005 4.2826 -2.7969 7.60416 -179.702 -0.991749 -73.265 -2.13264 8.55075 58.7119 -50.9978 -6.36111e-015 3.18055e-015 -59.4321 -43.4864 -55.5104 -177.894 7.46249 74.1947 10.7257 8.50853 -59.2093 -92.4969 -9.54166e-015 -6.36111e-015 -51.99 34.1754 47.4195 8.78517 14.3713 175.694 -15.304 -1.98785e-016 1.98785e-016 12.0691 3.79534 -2.80162 90 -1.98785e-016 -0 -11.5832 -7.21715 159.922 -18.3472 0 -3.18056e-015 8.40049 -4.69935 10.6563 90 0 -3.18055e-015 
408.461 87.6795 141.023 -79.4077 14.8642 -176.41 4.80585 -1.19981 -1.26146 9.58754 -2.50035 -2.41867 9.58754 -2.50035 -2.41868 -8.3051e-012 -9.0191e-006 -5.27751e-005 3.76574 -2.49303 6.77568 -179.75 -0.827836 -73.1634 -0.957707 8.87916 58.7154 -52.6273 0 -1.19271e-015 -59.6295 -43.3747 -55.6091 -177.966 7.38537 74.5583 11.1567 9.5488 -59.0852 -93.0201 0 -0 -52.8059 33.6903 47.9167 8.52376 14.2855 176.692 -16.4116 1.98785e-016 -0 12.756 3.62479 -2.30469 90 -1.82478e-017 -0 -11.9993 -7.69867 160.744 -18.8213 3.18056e-015 -1.59028e-015 5.98471 -5.0012 9.67767 90 7.95139e-016 -0 
